<svg xmlns="http://www.w3.org/2000/svg" viewBox="0 0 83.3 83.3">
  <defs>
    <style>
      .cls-1 {
        fill: #da1c5c;
      }
    </style>
  </defs>
  <g id="Layer_2" data-name="Layer 2">
    <g id="Layer_1-2" data-name="Layer 1">
      <g>
        <rect width="83.3" height="83.3"/>
        <g>
          <path class="cls-1" d="M23.94,39.25l1.5-7.32a28.53,28.53,0,0,1,1.74-5.7,9.44,9.44,0,0,1,2.67-3.6,9.84,9.84,0,0,1,4.08-1.86,27.69,27.69,0,0,1,5.91-.54q1.56,0,3.12.09t3.12.21L44.4,28.39a22.36,22.36,0,0,0-3.18-.18,3.6,3.6,0,0,0-2.58.81,5.89,5.89,0,0,0-1.32,2.91l-1.5,7.32L30.9,63.07H19Z"/>
          <path class="cls-1" d="M44.62,39.25l1.5-7.32a28.53,28.53,0,0,1,1.74-5.7,9.44,9.44,0,0,1,2.67-3.6,9.84,9.84,0,0,1,4.08-1.86,27.69,27.69,0,0,1,5.91-.54q1.56,0,3.12.09t3.12.21l-1.68,7.86a22.36,22.36,0,0,0-3.18-.18,3.6,3.6,0,0,0-2.58.81A5.89,5.89,0,0,0,58,31.93l-1.5,7.32L51.58,63.07H39.7Z"/>
          <path class="cls-1" d="M19.29,40.29l1.88-8.19H64.45l-1.82,8.19Z"/>
          <path class="cls-1" d="M16.54,54.62l1.88-8.19H61.7l-1.82,8.19Z"/>
        </g>
      </g>
    </g>
  </g>
</svg>
